<?xml version="1.0" encoding="UTF-8"?>
<svg xmlns="http://www.w3.org/2000/svg" viewBox="0 0 1725 696" width="1725" height="696">
<path d="M1724.83 120.88C1724.83 174.96 1724.83 229.03 1724.83 283.1C1684.67 283.23 1644.51 283.37 1604.34 283.5C1601.98 292.31 1603.54 303.3 1603.54 312.5C1603.54 331.5 1603.54 350.5 1603.54 369.5C1603.54 440.5 1603.54 511.5 1603.54 582.5C1603.54 604.5 1603.54 626.5 1603.54 648.5C1603.54 657.05 1604.98 672.88 1603 680.5C1463.83 680.55 1324.67 680.6 1185.5 680.65C1149.83 627.62 1114.17 574.59 1078.5 521.56C1041.4 574.54 1004.3 627.52 967.2 680.5C836.24 680.5 705.27 680.5 574.3 680.5C574.03 644.99 573.77 609.47 573.5 573.96C570.01 579.35 568.1 585.79 564.92 591.41C558.67 602.48 551.24 612.75 542.45 621.96C502.76 663.55 442.58 680.56 387.42 688.68C370.88 691.11 354.21 693.08 337.5 693.95C329.81 694.36 313.39 694 307 695.83C288.03 695.83 269.06 695.83 250.09 695.83C243.93 694.07 236.11 695.01 229.58 694.57C214.52 693.56 199.5 692.61 184.5 690.89C120.35 683.55 43.64 662.64 16.5 597.01C9.19 579.33 5.11 560.48 3.11 541.5C2.34 534.18 1.71 526.84 1.22 519.5C0.96 515.45 1.34 510.88 0.17 507.06C0.17 503.7 0.17 500.33 0.17 496.97C69.28 497 138.39 497.03 207.5 497.06C208.16 500.81 208.01 504.68 208.29 508.5C208.87 516.5 209.77 524.5 211.3 532.38C215.9 556.11 230.09 576.78 253.6 584.83C261.65 587.59 270.04 588.79 278.5 589.28C314.95 591.38 369.3 582.04 372.23 536.5C372.59 530.83 372.42 525.09 370.79 519.61C365.78 502.7 352.04 495.18 336.76 488.7C310.63 477.62 282.78 470.67 255.59 462.79C208.87 449.26 161.54 437.38 116.32 419.2C88.15 407.88 57.67 394.57 37.13 371.35C20.38 352.43 11.6 327.19 8.13 302.5C5.62 284.57 5.47 266.45 7.76 248.49C10.76 224.91 17.85 201.61 31.29 181.77C58.22 142.01 103.01 120.21 148.44 108.8C173.99 102.38 200.19 97.85 226.5 96.03C245.17 94.73 263.78 93.42 282.5 93.15C297.51 92.93 312.5 93.08 327.5 93.73C403.93 97.04 497.75 110.58 534.85 187.65C541.18 200.8 545.56 215.07 548.31 229.37C550.8 242.29 552.43 255.37 553.18 268.5C553.45 273.32 554.08 278.23 553.5 283.01C487.17 283.07 420.83 283.13 354.5 283.19C353.25 278.82 353.3 274.11 352.71 269.54C352.02 264.19 350.93 258.9 349.71 253.65C344.26 230.25 330.11 209.65 306.31 202.26C296.25 199.14 285.91 199.08 275.5 199.82C251.77 201.49 225.4 210.99 219.06 236.53C217.85 241.41 217.64 246.5 217.96 251.5C218.37 257.82 220.27 264.53 223.53 269.99C230.58 281.79 247.16 287.69 259.38 292.18C288.56 302.89 318.6 310.59 348.45 319.13C389.95 331.01 431.76 342.3 471.8 358.65C496.16 368.61 520.87 380.13 540.58 397.93C550.94 407.28 559.76 418.84 566.42 431.07C568.95 435.71 570.68 440.82 573.5 445.27C573.83 402.16 574.17 359.06 574.5 315.96C585.49 315.76 596.51 316.47 607.5 316.63C627.83 316.93 648.18 316.57 668.5 315.8C704.82 314.42 740.62 310.1 776.61 305.5C778.92 313.33 777.5 323.25 777.5 331.5C777.5 348.5 777.5 365.5 777.5 382.5C777.5 438.5 777.5 494.5 777.5 550.5C777.5 569.83 777.5 589.17 777.5 608.5C777.5 614.7 775.94 627.39 778.5 632.42C833.23 551.11 887.97 469.81 942.7 388.5C917.11 354.5 891.51 320.5 865.92 286.5C875.7 282.5 886.43 280.38 896.45 276.91C917.45 269.63 938.32 261.63 958.26 251.74C976.83 242.54 995.19 232.55 1012.35 220.89C1021.76 214.48 1030.73 206.66 1040.5 200.93C1057.17 221.72 1073.83 242.51 1090.5 263.3C1122.17 215.78 1153.83 168.27 1185.5 120.75C1365.28 120.8 1545.06 120.84 1724.83 120.88ZM1302.5 283.89C1277.27 319.43 1252.05 354.96 1226.82 390.5C1285.17 475.56 1343.52 560.62 1401.87 645.67C1401.87 525.08 1401.87 404.48 1401.87 283.89C1368.75 283.89 1335.62 283.89 1302.5 283.89Z" fill="#000000" fill-rule="evenodd" stroke="#000000" stroke-width="0.25" stroke-linejoin="round"/>
<path d="M937.85 0.17C1008.28 0.17 1078.7 0.17 1149.13 0.17C1147.61 10.73 1138.01 29.51 1133.24 39.72C1115.54 77.51 1090.21 112.73 1060.23 141.74C963.06 235.76 837.03 270.56 705.5 282.22C676.26 284.81 646.85 285.37 617.5 285.05C603.96 284.9 587.43 285.79 574.24 283.5C574.32 229.26 574.41 175.03 574.5 120.79C597.52 121.26 620.44 123.15 643.5 122.94C704.98 122.37 767.31 114.98 824.86 92.41C856.56 79.98 887.25 62.2 910.87 37.35C921.61 26.07 930.06 13.57 937.85 0.17Z" fill="#f4811e" fill-rule="evenodd" stroke="#f4811e" stroke-width="0.25" stroke-linejoin="round"/>
</svg>